<mxfile host="app.diagrams.net" agent="Mozilla/5.0 (Windows NT 10.0; Win64; x64) AppleWebKit/537.36 (KHTML, like Gecko) Chrome/137.0.0.0 Safari/537.36" version="27.2.0">
  <diagram name="Page-1" id="r8WW68OT3s2hQ9HVZM8K">
    <mxGraphModel dx="1042" dy="527" grid="1" gridSize="10" guides="1" tooltips="1" connect="1" arrows="1" fold="1" page="1" pageScale="1" pageWidth="827" pageHeight="1169" math="0" shadow="0">
      <root>
        <mxCell id="0" />
        <mxCell id="1" parent="0" />
        <mxCell id="DyFslGCkwV1tvTPdhf8Z-5" value="" style="edgeStyle=orthogonalEdgeStyle;rounded=0;orthogonalLoop=1;jettySize=auto;html=1;" edge="1" parent="1" source="DyFslGCkwV1tvTPdhf8Z-1" target="DyFslGCkwV1tvTPdhf8Z-2">
          <mxGeometry relative="1" as="geometry" />
        </mxCell>
        <mxCell id="DyFslGCkwV1tvTPdhf8Z-1" value="Lamp is not working" style="rounded=1;whiteSpace=wrap;html=1;" vertex="1" parent="1">
          <mxGeometry x="350" y="79" width="120" height="60" as="geometry" />
        </mxCell>
        <mxCell id="DyFslGCkwV1tvTPdhf8Z-4" value="" style="edgeStyle=orthogonalEdgeStyle;rounded=0;orthogonalLoop=1;jettySize=auto;html=1;" edge="1" parent="1" target="DyFslGCkwV1tvTPdhf8Z-6">
          <mxGeometry relative="1" as="geometry">
            <mxPoint x="410" y="266" as="sourcePoint" />
            <mxPoint x="410" y="356" as="targetPoint" />
          </mxGeometry>
        </mxCell>
        <mxCell id="DyFslGCkwV1tvTPdhf8Z-14" value="" style="edgeStyle=orthogonalEdgeStyle;rounded=0;orthogonalLoop=1;jettySize=auto;html=1;" edge="1" parent="1" source="DyFslGCkwV1tvTPdhf8Z-2" target="DyFslGCkwV1tvTPdhf8Z-13">
          <mxGeometry relative="1" as="geometry" />
        </mxCell>
        <mxCell id="DyFslGCkwV1tvTPdhf8Z-2" value="Is lamp plugged in" style="rhombus;whiteSpace=wrap;html=1;" vertex="1" parent="1">
          <mxGeometry x="370" y="193" width="80" height="80" as="geometry" />
        </mxCell>
        <mxCell id="DyFslGCkwV1tvTPdhf8Z-10" value="" style="edgeStyle=orthogonalEdgeStyle;rounded=0;orthogonalLoop=1;jettySize=auto;html=1;" edge="1" parent="1" source="DyFslGCkwV1tvTPdhf8Z-6" target="DyFslGCkwV1tvTPdhf8Z-9">
          <mxGeometry relative="1" as="geometry" />
        </mxCell>
        <mxCell id="DyFslGCkwV1tvTPdhf8Z-12" value="" style="edgeStyle=orthogonalEdgeStyle;rounded=0;orthogonalLoop=1;jettySize=auto;html=1;" edge="1" parent="1" source="DyFslGCkwV1tvTPdhf8Z-6" target="DyFslGCkwV1tvTPdhf8Z-11">
          <mxGeometry relative="1" as="geometry" />
        </mxCell>
        <mxCell id="DyFslGCkwV1tvTPdhf8Z-6" value="Is bulb burned out" style="rhombus;whiteSpace=wrap;html=1;" vertex="1" parent="1">
          <mxGeometry x="370" y="320" width="80" height="76" as="geometry" />
        </mxCell>
        <mxCell id="DyFslGCkwV1tvTPdhf8Z-9" value="Repair the bulb" style="rounded=1;whiteSpace=wrap;html=1;" vertex="1" parent="1">
          <mxGeometry x="350" y="484" width="120" height="60" as="geometry" />
        </mxCell>
        <mxCell id="DyFslGCkwV1tvTPdhf8Z-11" value="Replace the Bulb" style="rounded=1;whiteSpace=wrap;html=1;" vertex="1" parent="1">
          <mxGeometry x="510" y="328" width="120" height="60" as="geometry" />
        </mxCell>
        <mxCell id="DyFslGCkwV1tvTPdhf8Z-13" value="Plug in the lamp" style="rounded=1;whiteSpace=wrap;html=1;" vertex="1" parent="1">
          <mxGeometry x="510" y="203" width="120" height="60" as="geometry" />
        </mxCell>
      </root>
    </mxGraphModel>
  </diagram>
</mxfile>
